<mxfile modified="2024-06-08T17:21:37.060Z" host="app.diagrams.net" agent="Mozilla/5.0 (Windows NT 10.0; Win64; x64) AppleWebKit/537.36 (KHTML, like Gecko) Chrome/125.0.0.0 Safari/537.36" etag="HfJbYuDWMEyHFmsqJ7om" version="24.5.2" type="github">
  <diagram id="Ht1M8jgEwFfnCIfOTk4-" name="Page-1">
    <mxGraphModel dx="680" dy="686" grid="1" gridSize="10" guides="1" tooltips="1" connect="1" arrows="1" fold="1" page="1" pageScale="1" pageWidth="1169" pageHeight="827" math="0" shadow="0">
      <root>
        <mxCell id="0" />
        <mxCell id="1" parent="0" />
        <mxCell id="0Nob8IYni_k8NrIQMKCA-43" value="" style="endArrow=none;html=1;rounded=0;fillColor=#dae8fc;strokeColor=#6c8ebf;strokeWidth=7;" edge="1" parent="1" source="0Nob8IYni_k8NrIQMKCA-15" target="0Nob8IYni_k8NrIQMKCA-8">
          <mxGeometry width="50" height="50" relative="1" as="geometry">
            <mxPoint x="488" y="260" as="sourcePoint" />
            <mxPoint x="331" y="260" as="targetPoint" />
          </mxGeometry>
        </mxCell>
        <mxCell id="0Nob8IYni_k8NrIQMKCA-3" value="azcn-proxy1" style="sketch=0;outlineConnect=0;fontColor=#232F3E;gradientColor=none;strokeColor=#ffffff;fillColor=#232F3E;dashed=0;verticalLabelPosition=middle;verticalAlign=bottom;align=center;html=1;whiteSpace=wrap;fontSize=10;fontStyle=1;spacing=3;shape=mxgraph.aws4.productIcon;prIcon=mxgraph.aws4.ec2;" vertex="1" parent="1">
          <mxGeometry x="478" y="200" width="81" height="100" as="geometry" />
        </mxCell>
        <mxCell id="0Nob8IYni_k8NrIQMKCA-4" value="" style="sketch=0;pointerEvents=1;shadow=0;dashed=0;html=1;strokeColor=none;fillColor=#505050;labelPosition=center;verticalLabelPosition=bottom;verticalAlign=top;outlineConnect=0;align=center;shape=mxgraph.office.concepts.home;" vertex="1" parent="1">
          <mxGeometry x="530" y="650" width="20.4" height="20" as="geometry" />
        </mxCell>
        <mxCell id="0Nob8IYni_k8NrIQMKCA-5" value="" style="endArrow=none;dashed=1;html=1;rounded=0;" edge="1" parent="1">
          <mxGeometry width="50" height="50" relative="1" as="geometry">
            <mxPoint x="360" y="720" as="sourcePoint" />
            <mxPoint x="356" y="90" as="targetPoint" />
          </mxGeometry>
        </mxCell>
        <mxCell id="0Nob8IYni_k8NrIQMKCA-6" value="de-proxy1" style="sketch=0;outlineConnect=0;fontColor=#232F3E;gradientColor=none;strokeColor=#ffffff;fillColor=#232F3E;dashed=0;verticalLabelPosition=middle;verticalAlign=bottom;align=center;html=1;whiteSpace=wrap;fontSize=10;fontStyle=1;spacing=3;shape=mxgraph.aws4.productIcon;prIcon=mxgraph.aws4.ec2;" vertex="1" parent="1">
          <mxGeometry x="240" y="400" width="81" height="100" as="geometry" />
        </mxCell>
        <mxCell id="0Nob8IYni_k8NrIQMKCA-8" value="nl-proxy1" style="sketch=0;outlineConnect=0;fontColor=#232F3E;gradientColor=none;strokeColor=#ffffff;fillColor=#232F3E;dashed=0;verticalLabelPosition=middle;verticalAlign=bottom;align=center;html=1;whiteSpace=wrap;fontSize=10;fontStyle=1;spacing=3;shape=mxgraph.aws4.productIcon;prIcon=mxgraph.aws4.ec2;" vertex="1" parent="1">
          <mxGeometry x="240" y="200" width="81" height="100" as="geometry" />
        </mxCell>
        <mxCell id="0Nob8IYni_k8NrIQMKCA-10" value="" style="endArrow=none;html=1;rounded=0;" edge="1" parent="1">
          <mxGeometry width="50" height="50" relative="1" as="geometry">
            <mxPoint x="120" y="360" as="sourcePoint" />
            <mxPoint x="760" y="360" as="targetPoint" />
          </mxGeometry>
        </mxCell>
        <mxCell id="0Nob8IYni_k8NrIQMKCA-12" value="" style="endArrow=none;html=1;rounded=0;" edge="1" parent="1">
          <mxGeometry width="50" height="50" relative="1" as="geometry">
            <mxPoint x="120" y="680" as="sourcePoint" />
            <mxPoint x="760" y="680" as="targetPoint" />
          </mxGeometry>
        </mxCell>
        <mxCell id="0Nob8IYni_k8NrIQMKCA-13" value="OpenVPN" style="text;html=1;align=left;verticalAlign=middle;whiteSpace=wrap;rounded=0;" vertex="1" parent="1">
          <mxGeometry x="120" y="10" width="110" height="30" as="geometry" />
        </mxCell>
        <mxCell id="0Nob8IYni_k8NrIQMKCA-14" value="On-Prem" style="text;html=1;align=center;verticalAlign=middle;whiteSpace=wrap;rounded=0;" vertex="1" parent="1">
          <mxGeometry x="120" y="650" width="90" height="30" as="geometry" />
        </mxCell>
        <mxCell id="0Nob8IYni_k8NrIQMKCA-15" value="er-cn" style="sketch=0;outlineConnect=0;fontColor=#232F3E;gradientColor=none;strokeColor=#ffffff;fillColor=#232F3E;dashed=0;verticalLabelPosition=middle;verticalAlign=bottom;align=center;html=1;whiteSpace=wrap;fontSize=10;fontStyle=1;spacing=3;shape=mxgraph.aws4.productIcon;prIcon=mxgraph.aws4.ec2;" vertex="1" parent="1">
          <mxGeometry x="601.88" y="250" width="81" height="100" as="geometry" />
        </mxCell>
        <mxCell id="0Nob8IYni_k8NrIQMKCA-16" value="ch-proxy1" style="sketch=0;outlineConnect=0;fontColor=#232F3E;gradientColor=none;strokeColor=#ffffff;fillColor=#232F3E;dashed=0;verticalLabelPosition=middle;verticalAlign=bottom;align=center;html=1;whiteSpace=wrap;fontSize=10;fontStyle=1;spacing=3;shape=mxgraph.aws4.productIcon;prIcon=mxgraph.aws4.ec2;" vertex="1" parent="1">
          <mxGeometry x="400" y="400" width="81" height="100" as="geometry" />
        </mxCell>
        <mxCell id="0Nob8IYni_k8NrIQMKCA-17" value="" style="sketch=0;pointerEvents=1;shadow=0;dashed=0;html=1;strokeColor=none;fillColor=#505050;labelPosition=center;verticalLabelPosition=bottom;verticalAlign=top;outlineConnect=0;align=center;shape=mxgraph.office.devices.laptop;" vertex="1" parent="1">
          <mxGeometry x="411.11" y="570" width="58.77" height="34" as="geometry" />
        </mxCell>
        <mxCell id="0Nob8IYni_k8NrIQMKCA-21" value="" style="image;sketch=0;aspect=fixed;html=1;points=[];align=center;fontSize=12;image=img/lib/mscae/VirtualMachineWindows.svg;" vertex="1" parent="1">
          <mxGeometry x="247.39" y="560" width="66.22" height="60" as="geometry" />
        </mxCell>
        <mxCell id="0Nob8IYni_k8NrIQMKCA-23" value="GFW" style="text;html=1;align=center;verticalAlign=middle;whiteSpace=wrap;rounded=0;" vertex="1" parent="1">
          <mxGeometry x="310" y="50" width="90" height="30" as="geometry" />
        </mxCell>
        <mxCell id="0Nob8IYni_k8NrIQMKCA-24" value="&lt;font style=&quot;font-size: 10px;&quot;&gt;SW1&lt;/font&gt;" style="image;sketch=0;aspect=fixed;html=1;points=[];align=center;fontSize=12;image=img/lib/mscae/VM_Linux.svg;" vertex="1" parent="1">
          <mxGeometry x="563.89" y="410" width="65.22" height="60" as="geometry" />
        </mxCell>
        <mxCell id="0Nob8IYni_k8NrIQMKCA-27" value="" style="sketch=0;outlineConnect=0;gradientColor=none;fontColor=#545B64;strokeColor=none;fillColor=#879196;dashed=0;verticalLabelPosition=bottom;verticalAlign=top;align=center;html=1;fontSize=12;fontStyle=0;aspect=fixed;shape=mxgraph.aws4.illustration_desktop;pointerEvents=1" vertex="1" parent="1">
          <mxGeometry x="569.02" y="565" width="54.95" height="50" as="geometry" />
        </mxCell>
        <mxCell id="0Nob8IYni_k8NrIQMKCA-28" value="" style="endArrow=none;dashed=1;html=1;rounded=0;" edge="1" parent="1">
          <mxGeometry width="50" height="50" relative="1" as="geometry">
            <mxPoint x="520" y="680" as="sourcePoint" />
            <mxPoint x="520" y="360" as="targetPoint" />
          </mxGeometry>
        </mxCell>
        <mxCell id="0Nob8IYni_k8NrIQMKCA-29" value="" style="outlineConnect=0;dashed=0;verticalLabelPosition=bottom;verticalAlign=top;align=center;html=1;shape=mxgraph.aws3.office_building;fillColor=#7D7C7C;gradientColor=none;" vertex="1" parent="1">
          <mxGeometry x="490" y="624.75" width="20.96" height="50.5" as="geometry" />
        </mxCell>
        <mxCell id="0Nob8IYni_k8NrIQMKCA-33" value="" style="endArrow=none;html=1;rounded=0;fillColor=#d5e8d4;strokeColor=#82b366;strokeWidth=7;" edge="1" parent="1" source="0Nob8IYni_k8NrIQMKCA-24" target="0Nob8IYni_k8NrIQMKCA-3">
          <mxGeometry width="50" height="50" relative="1" as="geometry">
            <mxPoint x="680" y="450" as="sourcePoint" />
            <mxPoint x="730" y="400" as="targetPoint" />
          </mxGeometry>
        </mxCell>
        <mxCell id="0Nob8IYni_k8NrIQMKCA-34" value="" style="endArrow=none;html=1;rounded=0;fillColor=#d5e8d4;strokeColor=#82b366;strokeWidth=7;" edge="1" parent="1">
          <mxGeometry width="50" height="50" relative="1" as="geometry">
            <mxPoint x="478" y="240" as="sourcePoint" />
            <mxPoint x="321" y="240" as="targetPoint" />
          </mxGeometry>
        </mxCell>
        <mxCell id="0Nob8IYni_k8NrIQMKCA-36" value="" style="ellipse;shape=cloud;whiteSpace=wrap;html=1;" vertex="1" parent="1">
          <mxGeometry x="490" y="30" width="165" height="110" as="geometry" />
        </mxCell>
        <mxCell id="0Nob8IYni_k8NrIQMKCA-37" value="" style="endArrow=blockThin;html=1;rounded=0;strokeWidth=4;fillColor=#f8cecc;strokeColor=#b85450;endFill=1;" edge="1" parent="1" source="0Nob8IYni_k8NrIQMKCA-16" target="0Nob8IYni_k8NrIQMKCA-3">
          <mxGeometry width="50" height="50" relative="1" as="geometry">
            <mxPoint x="480" y="410" as="sourcePoint" />
            <mxPoint x="530" y="360" as="targetPoint" />
            <Array as="points">
              <mxPoint x="480" y="350" />
            </Array>
          </mxGeometry>
        </mxCell>
        <mxCell id="0Nob8IYni_k8NrIQMKCA-38" value="" style="endArrow=none;dashed=1;html=1;rounded=0;strokeWidth=4;fillColor=#f8cecc;strokeColor=#b85450;dashPattern=1 1;" edge="1" parent="1" source="0Nob8IYni_k8NrIQMKCA-17" target="0Nob8IYni_k8NrIQMKCA-16">
          <mxGeometry width="50" height="50" relative="1" as="geometry">
            <mxPoint x="440" y="550" as="sourcePoint" />
            <mxPoint x="490" y="500" as="targetPoint" />
          </mxGeometry>
        </mxCell>
        <mxCell id="0Nob8IYni_k8NrIQMKCA-39" value="" style="endArrow=blockThin;html=1;rounded=0;strokeWidth=4;fillColor=#f8cecc;strokeColor=#b85450;endFill=1;" edge="1" parent="1" source="0Nob8IYni_k8NrIQMKCA-6" target="0Nob8IYni_k8NrIQMKCA-8">
          <mxGeometry width="50" height="50" relative="1" as="geometry">
            <mxPoint x="470" y="410" as="sourcePoint" />
            <mxPoint x="509" y="310" as="targetPoint" />
          </mxGeometry>
        </mxCell>
        <mxCell id="0Nob8IYni_k8NrIQMKCA-40" value="" style="endArrow=none;dashed=1;html=1;rounded=0;strokeWidth=4;fillColor=#f8cecc;strokeColor=#b85450;dashPattern=1 1;" edge="1" parent="1" source="0Nob8IYni_k8NrIQMKCA-21" target="0Nob8IYni_k8NrIQMKCA-6">
          <mxGeometry width="50" height="50" relative="1" as="geometry">
            <mxPoint x="340" y="580" as="sourcePoint" />
            <mxPoint x="340" y="510" as="targetPoint" />
          </mxGeometry>
        </mxCell>
        <mxCell id="0Nob8IYni_k8NrIQMKCA-41" value="" style="endArrow=none;html=1;rounded=0;fillColor=#d5e8d4;strokeColor=#82b366;strokeWidth=7;" edge="1" parent="1" source="0Nob8IYni_k8NrIQMKCA-26" target="0Nob8IYni_k8NrIQMKCA-3">
          <mxGeometry width="50" height="50" relative="1" as="geometry">
            <mxPoint x="608.89" y="220" as="sourcePoint" />
            <mxPoint x="563.89" y="110" as="targetPoint" />
          </mxGeometry>
        </mxCell>
        <mxCell id="0Nob8IYni_k8NrIQMKCA-26" value="" style="sketch=0;pointerEvents=1;shadow=0;dashed=0;html=1;strokeColor=none;fillColor=#505050;labelPosition=center;verticalLabelPosition=bottom;verticalAlign=top;outlineConnect=0;align=center;shape=mxgraph.office.devices.laptop;" vertex="1" parent="1">
          <mxGeometry x="543.11" y="68" width="58.77" height="34" as="geometry" />
        </mxCell>
        <mxCell id="0Nob8IYni_k8NrIQMKCA-42" value="" style="endArrow=none;html=1;rounded=0;fillColor=#d5e8d4;strokeColor=#82b366;strokeWidth=7;" edge="1" parent="1" source="0Nob8IYni_k8NrIQMKCA-26" target="0Nob8IYni_k8NrIQMKCA-8">
          <mxGeometry width="50" height="50" relative="1" as="geometry">
            <mxPoint x="577" y="112" as="sourcePoint" />
            <mxPoint x="545" y="210" as="targetPoint" />
          </mxGeometry>
        </mxCell>
        <mxCell id="0Nob8IYni_k8NrIQMKCA-45" value="" style="endArrow=none;html=1;rounded=0;fillColor=#dae8fc;strokeColor=#6c8ebf;strokeWidth=7;" edge="1" parent="1" source="0Nob8IYni_k8NrIQMKCA-15" target="0Nob8IYni_k8NrIQMKCA-26">
          <mxGeometry width="50" height="50" relative="1" as="geometry">
            <mxPoint x="612" y="304" as="sourcePoint" />
            <mxPoint x="331" y="266" as="targetPoint" />
          </mxGeometry>
        </mxCell>
        <mxCell id="0Nob8IYni_k8NrIQMKCA-46" value="" style="endArrow=none;html=1;rounded=0;fillColor=#dae8fc;strokeColor=#6c8ebf;strokeWidth=7;" edge="1" parent="1">
          <mxGeometry width="50" height="50" relative="1" as="geometry">
            <mxPoint x="321" y="212.1143341495574" as="sourcePoint" />
            <mxPoint x="543.1100000000001" y="86.60482200037677" as="targetPoint" />
          </mxGeometry>
        </mxCell>
        <mxCell id="0Nob8IYni_k8NrIQMKCA-47" value="" style="endArrow=none;html=1;rounded=0;fillColor=#dae8fc;strokeColor=#6c8ebf;strokeWidth=7;" edge="1" parent="1" source="0Nob8IYni_k8NrIQMKCA-24" target="0Nob8IYni_k8NrIQMKCA-15">
          <mxGeometry width="50" height="50" relative="1" as="geometry">
            <mxPoint x="623.97" y="250" as="sourcePoint" />
            <mxPoint x="575.97" y="102" as="targetPoint" />
          </mxGeometry>
        </mxCell>
        <mxCell id="0Nob8IYni_k8NrIQMKCA-48" value="" style="endArrow=none;html=1;rounded=0;fillColor=#dae8fc;strokeColor=#6c8ebf;strokeWidth=7;" edge="1" parent="1">
          <mxGeometry width="50" height="50" relative="1" as="geometry">
            <mxPoint x="160" y="42" as="sourcePoint" />
            <mxPoint x="120" y="42" as="targetPoint" />
          </mxGeometry>
        </mxCell>
        <mxCell id="0Nob8IYni_k8NrIQMKCA-49" value="" style="endArrow=none;html=1;rounded=0;fillColor=#d5e8d4;strokeColor=#82b366;strokeWidth=7;" edge="1" parent="1">
          <mxGeometry width="50" height="50" relative="1" as="geometry">
            <mxPoint x="160" y="80" as="sourcePoint" />
            <mxPoint x="120" y="80" as="targetPoint" />
          </mxGeometry>
        </mxCell>
        <mxCell id="0Nob8IYni_k8NrIQMKCA-51" value="" style="endArrow=blockThin;html=1;rounded=0;strokeWidth=4;fillColor=#f8cecc;strokeColor=#b85450;endFill=1;" edge="1" parent="1">
          <mxGeometry width="50" height="50" relative="1" as="geometry">
            <mxPoint x="120" y="120" as="sourcePoint" />
            <mxPoint x="160" y="120" as="targetPoint" />
            <Array as="points">
              <mxPoint x="140" y="120" />
            </Array>
          </mxGeometry>
        </mxCell>
        <mxCell id="0Nob8IYni_k8NrIQMKCA-53" value="mTLS+vless" style="text;html=1;align=left;verticalAlign=middle;whiteSpace=wrap;rounded=0;" vertex="1" parent="1">
          <mxGeometry x="120" y="50" width="110" height="30" as="geometry" />
        </mxCell>
        <mxCell id="0Nob8IYni_k8NrIQMKCA-54" value="frp c/s" style="text;html=1;align=left;verticalAlign=middle;whiteSpace=wrap;rounded=0;" vertex="1" parent="1">
          <mxGeometry x="120" y="90" width="110" height="30" as="geometry" />
        </mxCell>
      </root>
    </mxGraphModel>
  </diagram>
</mxfile>
